TITLE "Fuzzy Warbles 2"
PERFORMER "Andy Partridge"
REM GENRE "Rock"
REM DATE "2002"
REM DISCID F80BA912
FILE "Fuzzy Warbles 2.flac" WAVE
  TRACK 01 AUDIO
    TITLE "Ridgeway Path"
    ISRC GBFHR0200020
    INDEX 01 00:00:00
  TRACK 02 AUDIO
    TITLE "I Don't Want To Be Here (Aids Benefit Version)"
    ISRC GBFHR0200021
    INDEX 01 00:57:20
  TRACK 03 AUDIO
    TITLE "Young Marrieds"
    ISRC GBFHR0200022
    INDEX 00 04:59:50
    INDEX 01 04:59:55
  TRACK 04 AUDIO
    TITLE "No One Here Available"
    ISRC GBFHR0200023
    INDEX 01 08:23:15
  TRACK 05 AUDIO
    TITLE "Obscene Procession"
    ISRC GBFHR0200024
    INDEX 01 08:42:12
  TRACK 06 AUDIO
    TITLE "Miller Time"
    ISRC GBFHR0200025
    INDEX 00 12:53:40
    INDEX 01 12:56:10
  TRACK 07 AUDIO
    TITLE "You're The Wish You Are I Had"
    ISRC GBFHR0200026
    INDEX 01 14:06:40
  TRACK 08 AUDIO
    TITLE "Ra Ra Rehearsal"
    ISRC GBFHR0200027
    INDEX 00 17:28:00
    INDEX 01 17:28:22
  TRACK 09 AUDIO
    TITLE "Ra Ra For Red Rocking Horse"
    ISRC GBFHR0200028
    INDEX 00 19:43:32
    INDEX 01 19:43:35
  TRACK 10 AUDIO
    TITLE "Everything'll Be Alright"
    ISRC GBFHR0200029
    INDEX 00 23:26:12
    INDEX 01 23:27:32
  TRACK 11 AUDIO
    TITLE "25 O'clock"
    ISRC GBFHR0200030
    INDEX 01 26:29:50
  TRACK 12 AUDIO
    TITLE "Goom"
    ISRC GBFHR0200031
    INDEX 01 28:51:72
  TRACK 13 AUDIO
    TITLE "Chain Of Command"
    ISRC GBFHR0200032
    INDEX 01 30:51:57
  TRACK 14 AUDIO
    TITLE "All Of A Sudden"
    ISRC GBFHR0200033
    INDEX 01 33:32:65
  TRACK 15 AUDIO
    TITLE "Summer's Cauldron"
    ISRC GBFHR0200034
    INDEX 00 34:41:65
    INDEX 01 34:42:67
  TRACK 16 AUDIO
    TITLE "Then She Appeared"
    ISRC GBFHR0200035
    INDEX 00 40:15:42
    INDEX 01 40:16:00
  TRACK 17 AUDIO
    TITLE "It's Snowing Angels"
    ISRC GBFHR0200036
    INDEX 01 43:15:25
  TRACK 18 AUDIO
    TITLE "Ship Trapped In The Ice"
    ISRC GBFHR0200037
    INDEX 01 46:34:00
